<svg id="Layer_1" data-name="Layer 1" xmlns="http://www.w3.org/2000/svg" viewBox="0 0 150 131"><defs><style>.cls-1{fill:#46546b;}</style></defs><path class="cls-1" d="M12.78,96.55a144.41,144.41,0,0,1,3.78-26,143.82,143.82,0,0,1,9.26-27.68,20.5,20.5,0,0,1,7.55-8.7c6.5-4.33,13.76-6.31,21.28-7.68,1.39-.26,2.79-.41,4.19-.54a2.64,2.64,0,0,1,2.89,1.81,23.07,23.07,0,0,1,1.21,3.75c.19,1,.6,1,1.39.85a68.3,68.3,0,0,1,22.42,0c.88.14,1.28.11,1.48-.91a23,23,0,0,1,1.23-3.74A2.51,2.51,0,0,1,92.23,26a60.76,60.76,0,0,1,24.11,7.16c5.08,2.85,8.17,7.31,10.36,12.64a165,165,0,0,1,10,35.54A124.89,124.89,0,0,1,138.43,100a5.44,5.44,0,0,1-.84,2.94c-3.52,6-9.06,9.55-15.2,12.29A60.41,60.41,0,0,1,105,120.08a4.19,4.19,0,0,1-4.53-2c-1.66-2.55-3.54-5-5.29-7.45a1.4,1.4,0,0,0-1.69-.64,83.5,83.5,0,0,1-35.88,0,1.38,1.38,0,0,0-1.66.7c-1.9,2.66-3.84,5.3-5.73,8a3,3,0,0,1-3,1.44c-10.77-1.25-20.74-4.47-29.16-11.62a23.22,23.22,0,0,1-4.89-6.31c-.87-1.51-.26-3.21-.37-4.83C12.76,97.1,12.78,96.83,12.78,96.55Zm87.35,11.8c1.27,1.71,2.56,3.31,3.67,5a2.05,2.05,0,0,0,2.37,1,60,60,0,0,0,11.43-3c5.66-2.14,10.64-5.22,14.35-10.14a4.19,4.19,0,0,0,.92-2.86A144,144,0,0,0,126.3,61c-1.86-6-3.73-12.06-7-17.53a10.24,10.24,0,0,0-3-3.63A53.71,53.71,0,0,0,95,31.94c-1-.17-1.2.34-1.41,1.12-.27,1,.53.91,1,1a62.94,62.94,0,0,1,18.07,7.4c1.62,1,2.13,2.46,1.29,3.89s-2.46,1.76-4.13.71a44.93,44.93,0,0,0-7.92-3.93,71.56,71.56,0,0,0-37.79-4c-8,1.36-15.64,3.65-22.62,7.88-1.78,1.08-3.38.83-4.25-.69s-.26-2.9,1.45-4a61,61,0,0,1,18-7.27c1.09-.26,1.12-.74.84-1.61s-1-.59-1.56-.51a43.4,43.4,0,0,0-9.17,2.24c-2,.72-3.93,1.39-5.87,2.16a18.6,18.6,0,0,0-11,10.65,164.1,164.1,0,0,0-7.71,23.78,139.91,139.91,0,0,0-3.88,27.91,2.77,2.77,0,0,0,.45,1.79,23.68,23.68,0,0,0,5,5.34c6.42,5,13.92,7.31,21.84,8.53.37.06.81.23,1.13-.2l4.39-5.93a46.32,46.32,0,0,1-9.7-4.24,57.13,57.13,0,0,1-6.79-4.3c-1.5-1.17-1.81-2.72-.83-4s2.7-1.49,4.2-.29A40.4,40.4,0,0,0,45.52,100a55.87,55.87,0,0,0,12.57,4.29c1.48.33,2.93.87,4.42,1.11a72.92,72.92,0,0,0,34.28-2.07c6-1.89,11.7-4.2,16.67-8.11a2.74,2.74,0,0,1,4.38,2.68,3.21,3.21,0,0,1-1.4,2,65.3,65.3,0,0,1-11.09,6.45C103.71,107.07,102,107.63,100.13,108.35Z"/><path class="cls-1" d="M45.53,79.22c0-6.5,3.71-12.26,8.69-13.93,4.24-1.42,10.49-.55,14,6C71,76.57,70.6,81.63,67.7,86.84A11.36,11.36,0,0,1,49,88.34,14.07,14.07,0,0,1,45.53,79.22Zm5.46-.9a9.42,9.42,0,0,0,1,4.52c1.25,2.37,3.09,4,5.89,4s4.64-1.63,5.85-4a9.33,9.33,0,0,0-1.2-10.1,6,6,0,0,0-9.4,0A8.67,8.67,0,0,0,51,78.32Z"/><path class="cls-1" d="M81,79.23C81,72.72,84.75,67,89.73,65.3c4.24-1.43,10.5-.56,14,6,2.78,5.27,2.42,10.33-.47,15.54a11.37,11.37,0,0,1-18.69,1.51A14.16,14.16,0,0,1,81,79.23Zm5.46-.57a8.79,8.79,0,0,0,.93,4.08c1.24,2.42,3.1,4.09,6,4.06a6.28,6.28,0,0,0,5.83-4,8.92,8.92,0,0,0-1-9.75c-2.66-3.43-7.1-3.4-9.83,0A9,9,0,0,0,86.5,78.66Z"/></svg>