<svg width="43" height="43" viewBox="0 0 43 43" fill="none" xmlns="http://www.w3.org/2000/svg">
<path d="M36.125 4.4375H6.875C6.22853 4.4375 5.60855 4.69431 5.15143 5.15143C4.69431 5.60855 4.4375 6.22853 4.4375 6.875V36.125C4.4375 36.7715 4.69431 37.3915 5.15143 37.8486C5.60855 38.3057 6.22853 38.5625 6.875 38.5625H20.6875V25.5625H17.4375V20.6875H20.6875V17.4375C20.6875 15.7136 21.3723 14.0603 22.5913 12.8413C23.8103 11.6223 25.4636 10.9375 27.1875 10.9375H32.0625V15.8125H27.1875C26.7565 15.8125 26.3432 15.9837 26.0385 16.2885C25.7337 16.5932 25.5625 17.0065 25.5625 17.4375V20.6875H32.0625L31.25 25.5625H25.5625V38.5625H36.125C36.7715 38.5625 37.3915 38.3057 37.8486 37.8486C38.3057 37.3915 38.5625 36.7715 38.5625 36.125V6.875C38.5625 6.22853 38.3057 5.60855 37.8486 5.15143C37.3915 4.69431 36.7715 4.4375 36.125 4.4375Z" stroke="#46546B" stroke-width="2" stroke-linecap="round" stroke-linejoin="round"/>
</svg>
