<svg width="45" height="44" viewBox="0 0 45 44" fill="none" xmlns="http://www.w3.org/2000/svg">
<g clip-path="url(#clip0_546_391)">
<path d="M34.0168 3.00001H10.7957C9.8918 2.99887 8.9968 3.18338 8.16317 3.54273C7.32954 3.90208 6.57406 4.42902 5.94104 5.09266C5.30802 5.7563 4.81021 6.54327 4.4768 7.40742C4.14339 8.27157 3.9811 9.19549 3.99945 10.125V14.875C3.99945 15.085 4.08054 15.2863 4.22488 15.4348C4.36922 15.5833 4.56499 15.6667 4.76912 15.6667H12.4659C12.67 15.6667 12.8658 15.5833 13.0101 15.4348C13.1545 15.2863 13.2356 15.085 13.2356 14.875C13.2356 14.665 13.1545 14.4637 13.0101 14.3152C12.8658 14.1667 12.67 14.0833 12.4659 14.0833H5.5388V10.125C5.52271 9.40406 5.64673 8.68707 5.90357 8.01607C6.16042 7.34507 6.54493 6.73356 7.03455 6.21742C7.52418 5.70127 8.10906 5.29086 8.75491 5.01026C9.40076 4.72966 10.0946 4.58452 10.7957 4.58334H34.0168C35.4452 4.58501 36.8147 5.16941 37.8247 6.20831C38.8348 7.24721 39.4029 8.65578 39.4045 10.125V14.0833H32.4775C32.2733 14.0833 32.0776 14.1667 31.9332 14.3152C31.7889 14.4637 31.7078 14.665 31.7078 14.875C31.7078 15.085 31.7889 15.2863 31.9332 15.4348C32.0776 15.5833 32.2733 15.6667 32.4775 15.6667H40.1742C40.3783 15.6667 40.5741 15.5833 40.7185 15.4348C40.8628 15.2863 40.9439 15.085 40.9439 14.875V10.125C40.9419 8.23598 40.2114 6.42493 38.9127 5.08918C37.6141 3.75344 35.8534 3.0021 34.0168 3.00001ZM40.1742 17.25C39.9701 17.25 39.7743 17.3334 39.63 17.4819C39.4856 17.6303 39.4045 17.8317 39.4045 18.0417V33.875C39.4029 35.3442 38.8348 36.7528 37.8247 37.7917C36.8147 38.8306 35.4452 39.415 34.0168 39.4167H10.9265C9.49811 39.415 8.12867 38.8306 7.11863 37.7917C6.10858 36.7528 5.54043 35.3442 5.5388 33.875V18.0417C5.5388 17.8317 5.45771 17.6303 5.31336 17.4819C5.16902 17.3334 4.97325 17.25 4.76912 17.25C4.56499 17.25 4.36922 17.3334 4.22488 17.4819C4.08054 17.6303 3.99945 17.8317 3.99945 18.0417V33.875C4.00148 35.764 4.73195 37.5751 6.03059 38.9108C7.32923 40.2466 9.08998 40.9979 10.9265 41H34.0168C35.8534 40.9979 37.6141 40.2466 38.9127 38.9108C40.2114 37.5751 40.9419 35.764 40.9439 33.875V18.0417C40.9439 17.8317 40.8628 17.6303 40.7185 17.4819C40.5741 17.3334 40.3783 17.25 40.1742 17.25Z" fill="#46546B" stroke="#46546B" stroke-width="0.3"/>
<path d="M13.2363 23.583C13.2363 25.4619 13.778 27.2987 14.7929 28.8609C15.8078 30.4232 17.2503 31.6408 18.9379 32.3599C20.6256 33.0789 22.4827 33.267 24.2743 32.9005C26.0659 32.5339 27.7117 31.6291 29.0034 30.3005C30.295 28.9719 31.1747 27.2792 31.5311 25.4364C31.8875 23.5935 31.7045 21.6834 31.0055 19.9475C30.3064 18.2116 29.1226 16.7279 27.6037 15.684C26.0849 14.6402 24.2992 14.083 22.4724 14.083C20.0237 14.0859 17.6762 15.0878 15.9447 16.8687C14.2132 18.6497 13.2392 21.0644 13.2363 23.583ZM30.1692 23.583C30.1692 25.1488 29.7178 26.6794 28.8721 27.9813C28.0263 29.2832 26.8243 30.2979 25.4179 30.8971C24.0115 31.4963 22.4639 31.653 20.9709 31.3476C19.4778 31.0421 18.1064 30.2881 17.03 29.1809C15.9536 28.0738 15.2206 26.6632 14.9236 25.1275C14.6266 23.5918 14.779 22 15.3616 20.5534C15.9441 19.1069 16.9306 17.8704 18.1963 17.0005C19.4621 16.1306 20.9502 15.6663 22.4724 15.6663C24.5131 15.6686 26.4695 16.5035 27.9124 17.9876C29.3553 19.4718 30.167 21.4841 30.1692 23.583Z" fill="#46546B" stroke="#46546B" stroke-width="0.3"/>
<path d="M16.3145 23.583C16.3145 24.8356 16.6756 26.0601 17.3522 27.1016C18.0287 28.1431 18.9904 28.9549 20.1155 29.4343C21.2406 29.9136 22.4787 30.039 23.6731 29.7947C24.8675 29.5503 25.9647 28.9471 26.8258 28.0614C27.6869 27.1756 28.2734 26.0471 28.511 24.8186C28.7485 23.59 28.6266 22.3166 28.1606 21.1594C27.6945 20.0021 26.9053 19.013 25.8927 18.317C24.8802 17.6211 23.6897 17.2497 22.4719 17.2497C20.8394 17.2516 19.2743 17.9194 18.1199 19.1068C16.9656 20.2941 16.3163 21.9039 16.3145 23.583ZM27.0899 23.583C27.0899 24.5225 26.8191 25.4408 26.3116 26.222C25.8042 27.0031 25.083 27.6119 24.2391 27.9714C23.3953 28.331 22.4667 28.425 21.5709 28.2417C20.6751 28.0585 19.8522 27.6061 19.2064 26.9418C18.5606 26.2775 18.1207 25.4311 17.9425 24.5097C17.7644 23.5883 17.8558 22.6332 18.2053 21.7653C18.5549 20.8973 19.1468 20.1555 19.9062 19.6335C20.6656 19.1116 21.5585 18.833 22.4719 18.833C23.6962 18.8345 24.87 19.3354 25.7357 20.2259C26.6015 21.1164 27.0885 22.3237 27.0899 23.583ZM30.9383 11.708C31.395 11.708 31.8414 11.5687 32.2211 11.3077C32.6008 11.0468 32.8968 10.6759 33.0716 10.2419C33.2463 9.80791 33.292 9.33037 33.203 8.86967C33.1139 8.40896 32.8939 7.98578 32.571 7.65363C32.2481 7.32148 31.8367 7.09528 31.3888 7.00364C30.9409 6.912 30.4766 6.95904 30.0547 7.1388C29.6327 7.31855 29.2721 7.62296 29.0184 8.01353C28.7647 8.4041 28.6293 8.86328 28.6293 9.33301C28.6293 9.9629 28.8725 10.567 29.3056 11.0124C29.7386 11.4578 30.3259 11.708 30.9383 11.708ZM30.9383 8.54134C31.0905 8.54134 31.2393 8.58777 31.3659 8.67476C31.4925 8.76175 31.5911 8.88539 31.6494 9.03005C31.7076 9.17471 31.7229 9.33389 31.6932 9.48746C31.6635 9.64102 31.5902 9.78209 31.4825 9.8928C31.3749 10.0035 31.2378 10.0789 31.0885 10.1095C30.9391 10.14 30.7844 10.1243 30.6438 10.0644C30.5031 10.0045 30.3829 9.90303 30.2983 9.77284C30.2138 9.64265 30.1686 9.48959 30.1686 9.33301C30.1686 9.12305 30.2497 8.92168 30.394 8.77322C30.5384 8.62475 30.7342 8.54134 30.9383 8.54134Z" fill="#46546B" stroke="#46546B" stroke-width="0.3"/>
</g>
<defs>
<clipPath id="clip0_546_391">
<rect width="36.9444" height="38" fill="white" transform="translate(4 3)"/>
</clipPath>
</defs>
</svg>
