<svg width="46" height="45" viewBox="0 0 46 45" fill="none" xmlns="http://www.w3.org/2000/svg">
<path d="M13.5 15.1875C14.8117 15.1875 15.875 14.0962 15.875 12.75C15.875 11.4038 14.8117 10.3125 13.5 10.3125C12.1883 10.3125 11.125 11.4038 11.125 12.75C11.125 14.0962 12.1883 15.1875 13.5 15.1875Z" stroke="#46546B" stroke-width="1.5" stroke-linecap="round" stroke-linejoin="round"/>
<path d="M15.875 18.4375H11.125V34.6875H15.875V18.4375Z" stroke="#46546B" stroke-width="1.5" stroke-linecap="round" stroke-linejoin="round"/>
<path d="M28.9993 17.4995C28.0742 17.4796 26.8268 17.5753 25.9993 18C25.1717 18.4247 24.3305 18.7232 23.791 19.4946V18.2494H19.041V34.4994H23.791V25.5619C23.791 22.8644 25.2002 21.4994 26.9577 21.4994C28.7152 21.4994 30.1244 22.8644 30.1244 25.5619V34.4994H34.8744V25.5619C34.8744 21.1257 32.9576 17.4995 28.9993 17.4995Z" stroke="#46546B" stroke-width="1.5" stroke-linecap="round" stroke-linejoin="round"/>
<path d="M37.25 5.4375H8.75C7.43832 5.4375 6.375 6.52881 6.375 7.875V37.125C6.375 38.4712 7.43832 39.5625 8.75 39.5625H37.25C38.5617 39.5625 39.625 38.4712 39.625 37.125V7.875C39.625 6.52881 38.5617 5.4375 37.25 5.4375Z" stroke="#46546B" stroke-width="1.5" stroke-linecap="round" stroke-linejoin="round"/>
</svg>
