<svg width="102" height="102" viewBox="0 0 102 102" fill="none" xmlns="http://www.w3.org/2000/svg">
<g clip-path="url(#clip0_438_1642)">
<path d="M18.3766 41.7616C17.5432 42.532 16.4618 42.979 15.3277 43.0218C16.5855 44.7524 18.2349 46.1609 20.1412 47.132C22.0475 48.1031 24.1566 48.6094 26.296 48.6094C28.4355 48.6094 30.5445 48.1031 32.4508 47.132C34.3572 46.1609 36.0066 44.7524 37.2644 43.0218C36.1302 42.979 35.0488 42.532 34.2153 41.7616C33.2393 42.909 32.0255 43.8306 30.6581 44.4626C29.2907 45.0946 27.8023 45.4219 26.296 45.4219C24.7896 45.4219 23.3012 45.0946 21.9338 44.4626C20.5664 43.8306 19.3526 42.909 18.3766 41.7616H18.3766ZM86.6706 43.0218C85.5365 42.979 84.455 42.532 83.6216 41.7616C82.6455 42.909 81.4318 43.8305 80.0644 44.4626C78.697 45.0946 77.2086 45.4219 75.7022 45.4219C74.1959 45.4219 72.7075 45.0946 71.3401 44.4626C69.9727 43.8305 68.7589 42.909 67.7829 41.7616C66.9495 42.532 65.868 42.979 64.7339 43.0218C65.9917 44.7524 67.6411 46.1609 69.5474 47.132C71.4537 48.1031 73.5628 48.6094 75.7022 48.6094C77.8417 48.6094 79.9507 48.1031 81.857 47.132C83.7633 46.1609 85.4128 44.7524 86.6706 43.0218H86.6706ZM4.04808 41.4313H6.33985C6.7749 42.8892 7.37845 44.2913 8.13827 45.6094L6.57061 47.1125C6.20482 47.4658 5.91472 47.8897 5.71792 48.3587C5.52113 48.8276 5.42177 49.3316 5.42588 49.8401C5.43425 50.4243 5.55962 51.001 5.7946 51.536C6.02958 52.0709 6.36939 52.5534 6.79396 52.9548L8.74724 54.8323C9.52024 55.6093 10.5601 56.0628 11.6555 56.1007C12.7509 56.1386 13.8196 55.7579 14.6444 55.0362L16.2732 53.4727C16.4576 53.5717 16.6468 53.6602 16.8338 53.7537C17.3303 52.7675 18.0231 51.8932 18.8696 51.1844C18.1803 50.8775 17.5108 50.528 16.865 50.1378C16.5645 49.9534 16.2113 49.8738 15.8607 49.9115C15.5102 49.9493 15.182 50.1022 14.9277 50.3463L12.437 52.737C12.2064 52.8869 11.9294 52.9487 11.6569 52.911C11.3844 52.8733 11.1346 52.7385 10.9534 52.5315L9.00404 50.658C8.88791 50.5541 8.79357 50.4283 8.7265 50.2877C8.65944 50.1471 8.62099 49.9945 8.61338 49.8389C8.61002 49.7598 8.62312 49.6808 8.65185 49.607C8.68058 49.5332 8.72432 49.4662 8.78031 49.4101L11.2764 47.0164C11.5467 46.7572 11.7171 46.411 11.7576 46.0387C11.7982 45.6664 11.7063 45.2916 11.4982 44.9803C10.3761 43.3091 9.57075 41.4458 9.12232 39.4835C9.04202 39.1313 8.84453 38.8169 8.5622 38.5917C8.27986 38.3665 7.92942 38.2438 7.56826 38.2438H4.04808C3.79535 38.211 3.56491 38.0823 3.40453 37.8842C3.24414 37.6862 3.16612 37.434 3.18662 37.18V34.5326C3.16611 34.2786 3.24414 34.0264 3.40452 33.8283C3.5649 33.6303 3.79534 33.5015 4.04808 33.4688H6.76633C7.18902 33.4688 7.5944 33.3008 7.89328 33.002C8.19217 32.7031 8.36008 32.2977 8.36008 31.875C8.36008 31.4523 8.19217 31.0469 7.89328 30.748C7.5944 30.4492 7.18902 30.2812 6.76633 30.2812H4.04808C2.94801 30.3099 1.90416 30.7735 1.14523 31.5704C0.386292 32.3672 -0.0258421 33.4324 -0.000882015 34.5326V37.18C-0.0258249 38.2802 0.386317 39.3453 1.14525 40.1422C1.90418 40.939 2.94802 41.4026 4.04808 41.4313ZM97.9502 30.2812H95.2319C94.8092 30.2812 94.4038 30.4492 94.105 30.748C93.8061 31.0469 93.6382 31.4523 93.6382 31.875C93.6382 32.2977 93.8061 32.7031 94.105 33.002C94.4038 33.3008 94.8092 33.4688 95.2319 33.4688H97.9502C98.2029 33.5015 98.4333 33.6303 98.5937 33.8283C98.7541 34.0264 98.8321 34.2786 98.8116 34.5326V37.18C98.8321 37.434 98.7541 37.6862 98.5937 37.8843C98.4333 38.0823 98.2029 38.2111 97.9502 38.2438H94.4304C94.0693 38.2439 93.7189 38.3665 93.4365 38.5916C93.1542 38.8168 92.9567 39.1311 92.8763 39.4831C92.4277 41.4456 91.6224 43.3089 90.5005 44.9803C90.292 45.2915 90.1999 45.6662 90.2403 46.0386C90.2807 46.411 90.4511 46.7572 90.7215 47.0165L93.2148 49.4071C93.2715 49.4633 93.3159 49.5307 93.3451 49.605C93.3743 49.6793 93.3877 49.7588 93.3845 49.8386C93.377 49.994 93.3387 50.1463 93.2719 50.2868C93.2051 50.4272 93.1111 50.553 92.9954 50.6569L91.0467 52.5292C90.8656 52.7371 90.6154 52.8725 90.3423 52.9107C90.0692 52.9488 89.7915 52.887 89.5604 52.7366L87.0702 50.3464C86.816 50.1017 86.4877 49.9485 86.1369 49.9108C85.7861 49.8731 85.4328 49.9531 85.1324 50.1382C84.4868 50.5284 83.8175 50.8779 83.1283 51.1847C83.9749 51.8934 84.6677 52.7677 85.1643 53.7538C85.3512 53.6603 85.5403 53.5718 85.7247 53.4728L87.3534 55.0362C88.1787 55.7583 89.2481 56.1389 90.3441 56.1005C91.44 56.0621 92.4802 55.6077 93.253 54.8296L95.2055 52.9541C95.6299 52.5527 95.9695 52.0701 96.2042 51.5352C96.4389 51.0002 96.564 50.4235 96.572 49.8394C96.5761 49.3303 96.4764 48.8256 96.2791 48.3563C96.0817 47.8869 95.7908 47.4627 95.4241 47.1095L93.86 45.6095C94.6201 44.2915 95.2236 42.8893 95.6584 41.4313H97.9502C99.0503 41.4027 100.094 40.9391 100.853 40.1422C101.612 39.3453 102.024 38.2801 101.999 37.18V34.5326C102.024 33.4324 101.612 32.3672 100.853 31.5704C100.094 30.7735 99.0502 30.3099 97.9502 30.2812ZM78.289 65.8025C79.5508 65.7525 80.7415 65.2049 81.6007 64.2795C82.4599 63.3541 82.9178 62.1261 82.8741 60.8641V57.5322C82.9178 56.2702 82.4599 55.0422 81.6007 54.1167C80.7415 53.1913 79.5508 52.6437 78.289 52.5938H74.9793C74.5566 52.5938 74.1512 52.7617 73.8523 53.0605C73.5535 53.3594 73.3855 53.7648 73.3855 54.1875C73.3855 54.6102 73.5535 55.0156 73.8523 55.3145C74.1512 55.6133 74.5566 55.7812 74.9793 55.7812H78.289C78.7041 55.8337 79.0823 56.0459 79.3433 56.3729C79.6043 56.6999 79.7275 57.1158 79.6866 57.5322V60.8641C79.7275 61.2804 79.6043 61.6963 79.3433 62.0233C79.0823 62.3503 78.7041 62.5626 78.289 62.615H74.0027C73.6396 62.6151 73.2874 62.7392 73.0044 62.9666C72.7214 63.1941 72.5245 63.5114 72.4463 63.866C71.8919 66.3788 70.8922 68.7721 69.4946 70.9328C69.2968 71.2395 69.2103 71.6049 69.2495 71.9678C69.2887 72.3307 69.4513 72.6691 69.7101 72.9266L72.7436 75.9409C72.8535 76.054 72.9397 76.1879 72.9971 76.3348C73.0546 76.4816 73.0821 76.6385 73.0782 76.7961C73.0625 77.3059 72.846 77.7888 72.4759 78.1397L70.1 80.4976C69.8283 80.8187 69.4444 81.0243 69.0266 81.0726C68.6087 81.1209 68.1881 81.0082 67.8503 80.7575L64.8153 77.7498C64.5587 77.4956 64.2234 77.336 63.8643 77.2972C63.5052 77.2584 63.1436 77.3427 62.8387 77.5362C60.6535 78.9267 58.2393 79.9193 55.708 80.468C55.3523 80.5452 55.0337 80.7419 54.8052 81.0252C54.5767 81.3086 54.4521 81.6616 54.452 82.0256V86.28C54.3882 86.6921 54.1692 87.0642 53.8399 87.3201C53.5106 87.576 53.0959 87.6962 52.6808 87.6562H49.3174C48.9023 87.6962 48.4876 87.576 48.1582 87.3201C47.8289 87.0643 47.6098 86.6921 47.5459 86.28V82.0256C47.5459 81.6616 47.4213 81.3085 47.1927 81.0251C46.9642 80.7418 46.6456 80.5452 46.2899 80.468C43.758 79.9187 41.3431 78.926 39.1569 77.5358C38.8519 77.3425 38.4904 77.2585 38.1315 77.2975C37.7726 77.3364 37.4375 77.496 37.181 77.7501L34.1476 80.7583C33.8095 81.0085 33.3889 81.1209 32.971 81.0728C32.5532 81.0247 32.1691 80.8196 31.8967 80.4991L29.5216 78.1412C29.1524 77.789 28.9367 77.3056 28.9212 76.7957C28.9167 76.6384 28.9435 76.4818 29 76.335C29.0565 76.1882 29.1417 76.0541 29.2504 75.9404L32.2901 72.9285C32.55 72.6709 32.7134 72.3317 32.7528 71.9678C32.7922 71.604 32.7052 71.2377 32.5064 70.9304C31.1065 68.7714 30.1058 66.3784 29.552 63.8655C29.4738 63.511 29.2768 63.1938 28.9938 62.9664C28.7108 62.739 28.3586 62.615 27.9956 62.615H23.7081C23.2953 62.5576 22.9203 62.344 22.6605 62.0182C22.4006 61.6924 22.2757 61.2792 22.3116 60.8641V57.5322C22.2757 57.117 22.4006 56.7039 22.6604 56.378C22.9203 56.0522 23.2953 55.8386 23.7081 55.7812H27.0185C27.4412 55.7812 27.8466 55.6133 28.1455 55.3145C28.4444 55.0156 28.6123 54.6102 28.6123 54.1875C28.6123 53.7648 28.4444 53.3594 28.1455 53.0605C27.8466 52.7617 27.4412 52.5938 27.0185 52.5938H23.7081C22.4464 52.6439 21.256 53.1916 20.397 54.117C19.538 55.0424 19.0804 56.2703 19.1241 57.5322V60.8641C19.0804 62.1259 19.538 63.3538 20.397 64.2792C21.256 65.2047 22.4464 65.7523 23.7081 65.8025H26.7493C27.3033 67.8127 28.1105 69.7444 29.1516 71.5511L27.0038 73.6791C26.5961 74.0886 26.2738 74.5751 26.0558 75.1103C25.8378 75.6455 25.7283 76.2187 25.7337 76.7965C25.7514 78.1546 26.3053 79.4506 27.2746 80.4019L29.6531 82.7637C30.5187 83.6811 31.7098 84.2221 32.9701 84.2702C34.2305 84.3183 35.4593 83.8697 36.3923 83.0209L38.546 80.8852C40.3756 81.9227 42.3284 82.7263 44.3583 83.277V86.28C44.4143 87.5416 44.9673 88.7297 45.8965 89.5848C46.8257 90.4399 48.0556 90.8925 49.3174 90.8438H52.6808C53.9426 90.8925 55.1724 90.4399 56.1015 89.5847C57.0307 88.7296 57.5836 87.5415 57.6395 86.28V83.2769C59.6692 82.7265 61.6217 81.923 63.4511 80.8855L65.6044 83.0197C66.5372 83.8692 67.7665 84.3181 69.0272 84.2698C70.288 84.2215 71.4793 83.6798 72.3443 82.7614L74.7217 80.4019C75.6937 79.4511 76.249 78.1537 76.2657 76.7941C76.2707 76.2159 76.1604 75.6424 75.9411 75.1073C75.7219 74.5723 75.398 74.0863 74.9887 73.6779L72.8486 71.5514C73.8881 69.744 74.6948 67.8124 75.2493 65.8025L78.289 65.8025Z" fill="url(#paint0_linear_438_1642)"/>
<path d="M40.2916 66.7942C39.4712 67.4048 38.4758 67.7346 37.4531 67.7344C37.2967 67.7344 37.1424 67.7257 36.9899 67.711C38.5855 69.9372 40.6887 71.7511 43.1251 73.0023C45.5615 74.2536 48.261 74.9063 51 74.9063C53.7389 74.9063 56.4384 74.2536 58.8748 73.0023C61.3112 71.7511 63.4144 69.9372 65.01 67.711C64.8575 67.7257 64.7032 67.7344 64.5469 67.7344C63.5242 67.7346 62.5288 67.4048 61.7084 66.7942C60.3842 68.3388 58.7416 69.5786 56.8932 70.4287C55.0448 71.2787 53.0344 71.7188 51 71.7188C48.9655 71.7188 46.9551 71.2787 45.1067 70.4287C43.2583 69.5786 41.6157 68.3388 40.2915 66.7942H40.2916ZM35.8594 53.3494V62.9532C35.8594 63.3759 36.0273 63.7813 36.3262 64.0801C36.6251 64.379 37.0304 64.5469 37.4531 64.5469C37.8758 64.5469 38.2812 64.379 38.5801 64.0801C38.879 63.7813 39.0469 63.3759 39.0469 62.9532V53.3494C39.0469 50.2174 41.9742 47.353 45.3336 47.0463C44.2025 46.379 43.1972 45.5185 42.3633 44.5039C38.6422 45.9289 35.8594 49.4508 35.8594 53.3494ZM62.9531 53.3494V62.9532C62.9531 63.3759 63.121 63.7813 63.4199 64.0801C63.7188 64.379 64.1242 64.5469 64.5469 64.5469C64.9696 64.5469 65.3749 64.379 65.6738 64.0801C65.9727 63.7813 66.1406 63.3759 66.1406 62.9532V53.3494C66.1406 49.4508 63.3577 45.9288 59.6367 44.5039C58.8029 45.5185 57.7975 46.379 56.6664 47.0463C60.0253 47.3528 62.9531 50.2173 62.9531 53.3494ZM50.9887 61.3594H51.0159C51.3886 61.358 51.7571 61.2812 52.0993 61.1336C52.4414 60.9861 52.7502 60.7708 53.007 60.5007L54.9921 58.4171C55.2883 58.1023 55.5104 57.7254 55.6423 57.3138C55.7741 56.9022 55.8122 56.4664 55.754 56.0381L54.6531 47.9826C53.6425 48.3331 52.5866 48.5354 51.518 48.5832L50.5319 48.5857C49.4639 48.543 48.4077 48.3459 47.3961 48.0007L46.2491 55.8903C46.1859 56.3126 46.2176 56.7437 46.342 57.1522C46.4664 57.5607 46.6803 57.9363 46.9682 58.2517L48.9864 60.459C49.241 60.7379 49.55 60.9617 49.8943 61.1165C50.2387 61.2714 50.6112 61.3541 50.9887 61.3594Z" fill="url(#paint1_linear_438_1642)"/>
<path d="M51 45.4219C55.401 45.4219 58.9688 41.8541 58.9688 37.4531C58.9688 33.0521 55.401 29.4844 51 29.4844C46.599 29.4844 43.0312 33.0521 43.0312 37.4531C43.0312 41.8541 46.599 45.4219 51 45.4219Z" fill="url(#paint2_linear_438_1642)"/>
<path d="M26.2856 39.047H26.3128C26.6854 39.0456 27.0537 38.9688 27.3958 38.8213C27.7379 38.6738 28.0466 38.4586 28.3034 38.1887L30.2894 36.1046C30.5853 35.7897 30.8072 35.4128 30.939 35.0012C31.0708 34.5897 31.1092 34.1539 31.0512 33.7257L30.2546 27.8981C29.2617 28.3084 28.2106 28.5603 27.1397 28.6449L25.4837 28.6464C24.4137 28.5648 23.3631 28.3162 22.37 27.9095L21.5459 33.5778C21.4827 34.0001 21.5145 34.4312 21.6388 34.8397C21.7632 35.2482 21.9771 35.6239 22.265 35.9393L24.2832 38.1466C24.5378 38.4255 24.8468 38.6493 25.1912 38.8041C25.5356 38.959 25.908 39.0416 26.2856 39.047ZM15.1406 39.8439C15.5633 39.8439 15.9687 39.6759 16.2676 39.3771C16.5664 39.0782 16.7344 38.6728 16.7344 38.2501V31.1892C16.8015 30.1808 17.1639 29.2145 17.7764 28.4108C18.389 27.607 19.2245 27.0013 20.179 26.6692C19.2724 26.004 18.4794 25.1966 17.8305 24.2783C16.576 24.957 15.5208 25.9517 14.7694 27.164C14.018 28.3762 13.5966 29.7638 13.5469 31.1892V38.2501C13.5469 38.6728 13.7148 39.0782 14.0137 39.3771C14.3126 39.6759 14.7179 39.8439 15.1406 39.8439ZM35.8594 31.1892V38.2501C35.8594 38.6728 36.0273 39.0782 36.3262 39.3771C36.6251 39.676 37.0304 39.8439 37.4531 39.8439C37.8758 39.8439 38.2812 39.676 38.5801 39.3771C38.879 39.0782 39.0469 38.6728 39.0469 38.2501V31.1892C38.9972 29.7638 38.5757 28.3762 37.8243 27.1639C37.073 25.9517 36.0177 24.9569 34.7633 24.2783C34.1144 25.1966 33.3213 26.004 32.4148 26.6692C33.3692 27.0013 34.2048 27.607 34.8173 28.4108C35.4299 29.2145 35.7923 30.1808 35.8594 31.1892Z" fill="url(#paint3_linear_438_1642)"/>
<path d="M26.2969 25.5C30.2578 25.5 33.4688 22.289 33.4688 18.3281C33.4688 14.3672 30.2578 11.1562 26.2969 11.1562C22.336 11.1562 19.125 14.3672 19.125 18.3281C19.125 22.289 22.336 25.5 26.2969 25.5Z" fill="url(#paint4_linear_438_1642)"/>
<path d="M75.6907 39.0471H75.7187C76.0914 39.0457 76.46 38.969 76.8022 38.8214C77.1444 38.6738 77.4533 38.4585 77.7101 38.1884L79.6953 36.1047C79.9915 35.79 80.2136 35.4131 80.3454 35.0015C80.4772 34.5899 80.5154 34.154 80.4571 33.7258L79.6607 27.8983C78.6677 28.3085 77.6165 28.5604 76.5455 28.645L74.8902 28.6465C73.8201 28.565 72.7693 28.3163 71.7762 27.9095L70.9522 33.5779C70.889 34.0003 70.9208 34.4315 71.0453 34.84C71.1699 35.2485 71.384 35.6241 71.672 35.9394L73.6891 38.1456C73.9434 38.4246 74.2522 38.6486 74.5965 38.8037C74.9408 38.9588 75.3132 39.0416 75.6907 39.0471ZM64.5469 39.844C64.9696 39.844 65.3749 39.6761 65.6738 39.3772C65.9727 39.0783 66.1406 38.6729 66.1406 38.2502V31.1893C66.2077 30.1809 66.5701 29.2146 67.1827 28.4108C67.7952 27.6071 68.6307 27.0013 69.5852 26.6692C68.6786 26.004 67.8855 25.1966 67.2366 24.2783C65.9822 24.957 64.927 25.9517 64.1756 27.164C63.4242 28.3763 63.0028 29.7639 62.9531 31.1893V38.2502C62.9531 38.6729 63.1211 39.0783 63.4199 39.3772C63.7188 39.6761 64.1242 39.844 64.5469 39.844ZM85.2656 31.1893V38.2502C85.2656 38.6729 85.4335 39.0783 85.7324 39.3772C86.0313 39.6761 86.4367 39.844 86.8594 39.844C87.2821 39.844 87.6874 39.6761 87.9863 39.3772C88.2852 39.0783 88.4531 38.6729 88.4531 38.2502V31.1893C88.4035 29.7639 87.982 28.3763 87.2307 27.164C86.4793 25.9517 85.4241 24.957 84.1696 24.2783C83.5207 25.1966 82.7276 26.004 81.8211 26.6692C82.7755 27.0013 83.6111 27.6071 84.2236 28.4108C84.8361 29.2146 85.1985 30.1809 85.2656 31.1893Z" fill="url(#paint5_linear_438_1642)"/>
<path d="M75.7031 25.5C79.664 25.5 82.875 22.289 82.875 18.3281C82.875 14.3672 79.664 11.1562 75.7031 11.1562C71.7422 11.1562 68.5312 14.3672 68.5312 18.3281C68.5312 22.289 71.7422 25.5 75.7031 25.5Z" fill="url(#paint6_linear_438_1642)"/>
</g>
<defs>
<linearGradient id="paint0_linear_438_1642" x1="28.0257" y1="30.2812" x2="82.7025" y2="30.2812" gradientUnits="userSpaceOnUse">
<stop offset="0.0814594" stop-color="#E1CDE3"/>
<stop offset="1" stop-color="#84ADDC"/>
</linearGradient>
<linearGradient id="paint1_linear_438_1642" x1="44.1799" y1="44.5039" x2="60.4117" y2="44.5039" gradientUnits="userSpaceOnUse">
<stop offset="0.0814594" stop-color="#E1CDE3"/>
<stop offset="1" stop-color="#84ADDC"/>
</linearGradient>
<linearGradient id="paint2_linear_438_1642" x1="47.4105" y1="29.4844" x2="55.9535" y2="29.4844" gradientUnits="userSpaceOnUse">
<stop offset="0.0814594" stop-color="#E1CDE3"/>
<stop offset="1" stop-color="#84ADDC"/>
</linearGradient>
<linearGradient id="paint3_linear_438_1642" x1="20.5536" y1="24.2783" x2="34.2226" y2="24.2783" gradientUnits="userSpaceOnUse">
<stop offset="0.0814594" stop-color="#E1CDE3"/>
<stop offset="1" stop-color="#84ADDC"/>
</linearGradient>
<linearGradient id="paint4_linear_438_1642" x1="23.0663" y1="11.1562" x2="30.7551" y2="11.1562" gradientUnits="userSpaceOnUse">
<stop offset="0.0814594" stop-color="#E1CDE3"/>
<stop offset="1" stop-color="#84ADDC"/>
</linearGradient>
<linearGradient id="paint5_linear_438_1642" x1="69.9599" y1="24.2783" x2="83.6288" y2="24.2783" gradientUnits="userSpaceOnUse">
<stop offset="0.0814594" stop-color="#E1CDE3"/>
<stop offset="1" stop-color="#84ADDC"/>
</linearGradient>
<linearGradient id="paint6_linear_438_1642" x1="72.4726" y1="11.1562" x2="80.1613" y2="11.1562" gradientUnits="userSpaceOnUse">
<stop offset="0.0814594" stop-color="#E1CDE3"/>
<stop offset="1" stop-color="#84ADDC"/>
</linearGradient>
<clipPath id="clip0_438_1642">
<rect width="102" height="102" fill="white"/>
</clipPath>
</defs>
</svg>
