<svg width="90" height="89" viewBox="0 0 90 89" fill="none" xmlns="http://www.w3.org/2000/svg">
<g filter="url(#filter0_b_438_1621)">
<path d="M80.8076 43.4521C82.1063 48.337 80.0929 54.3496 75.5809 60.3668C70.6067 67.0076 62.5934 73.6541 52.6367 78.8071C49.4445 80.4594 46.2438 81.8578 43.0951 83.0025C26.137 89.179 10.6611 88.0401 6.21767 79.4501C3.52438 74.2452 5.40451 67.3104 10.6094 60.3668C14.1879 55.5916 19.3407 50.8078 25.6585 46.5863C27.0311 48.8499 28.8276 50.828 30.9412 52.4081C30.9441 52.4081 30.9441 52.4111 30.9468 52.4138C32.2776 53.6782 33.3694 54.8292 34.2655 55.8667" stroke="url(#paint0_linear_438_1621)" stroke-width="3" stroke-miterlimit="10" stroke-linecap="round" stroke-linejoin="round"/>
<path d="M37.5293 60.5211C38.3625 62.1612 38.3625 62.9809 38.3625 62.9809V64.2813H48.4606V62.9809C48.4606 62.9723 48.4663 58.644 58.5501 49.9993C59.4584 49.0333 60.2514 47.9779 60.9291 46.8504C62.8206 43.6873 63.7924 39.9472 63.7924 35.9362C63.7924 35.2298 63.7577 34.529 63.6856 33.8398C67.639 33.9086 71.13 34.5802 73.9364 35.8565" stroke="url(#paint1_linear_438_1621)" stroke-width="3" stroke-miterlimit="10" stroke-linecap="round" stroke-linejoin="round"/>
<path d="M46.483 76.9268H39.9922" stroke="url(#paint2_linear_438_1621)" stroke-width="3" stroke-miterlimit="10" stroke-linecap="round" stroke-linejoin="round"/>
<path d="M51.5923 72.9346H35.3652" stroke="url(#paint3_linear_438_1621)" stroke-width="3" stroke-miterlimit="10" stroke-linecap="round" stroke-linejoin="round"/>
<path d="M51.5923 68.6074H35.3652" stroke="url(#paint4_linear_438_1621)" stroke-width="3" stroke-miterlimit="10" stroke-linecap="round" stroke-linejoin="round"/>
<path d="M38.3633 64.2842H35.3672" stroke="url(#paint5_linear_438_1621)" stroke-width="3" stroke-miterlimit="10" stroke-linecap="round" stroke-linejoin="round"/>
<path d="M51.5924 64.2842H48.4609" stroke="url(#paint6_linear_438_1621)" stroke-width="3" stroke-miterlimit="10" stroke-linecap="round" stroke-linejoin="round"/>
<path d="M32.8545 54.314C32.2805 53.7118 31.6467 53.0781 30.9468 52.413C30.9439 52.4101 30.9439 52.4073 30.9411 52.4073C28.8275 50.8272 27.031 48.849 25.6585 46.5856C23.7698 43.4829 22.6855 39.8352 22.6855 35.9367C22.6855 35.2273 22.7202 34.5295 22.7923 33.8374C23.8418 23.4711 32.5963 15.3828 43.2394 15.3828C53.8854 15.3828 62.637 23.4741 63.6866 33.8403C63.7586 34.5295 63.7933 35.2303 63.7933 35.9367C63.7933 39.9477 62.8215 43.6876 60.93 46.8509C60.2524 47.9784 59.4594 49.0338 58.551 49.9998C48.4674 58.6445 48.4615 62.9728 48.4615 62.9814V64.2818H38.3634V62.9814C38.3634 62.9814 38.3634 62.1617 37.5302 60.5215" stroke="url(#paint7_linear_438_1621)" stroke-width="3" stroke-miterlimit="10" stroke-linecap="round" stroke-linejoin="round"/>
<path d="M48.4614 64.2842V72.8396L40.2865 72.9377L38.3633 72.9607V64.2842H48.4614Z" stroke="url(#paint8_linear_438_1621)" stroke-width="3" stroke-miterlimit="10" stroke-linecap="round" stroke-linejoin="round"/>
<path d="M79.5555 79.7002C75.1119 88.2903 60.051 89.1767 43.0931 83.0002C39.9443 81.8555 36.7435 80.457 33.5516 78.8048C23.5946 73.6518 15.5813 67.0053 10.6073 60.3645C5.40248 53.4238 3.52252 46.4889 6.21564 41.2842" stroke="url(#paint9_linear_438_1621)" stroke-width="3" stroke-miterlimit="10" stroke-linecap="round" stroke-linejoin="round"/>
<path d="M37.5293 60.5212C38.3625 62.1613 38.3625 62.981 38.3625 62.981V64.2815H48.4606V62.981C48.4606 62.9724 48.4663 58.6442 58.5501 49.9994C59.4584 49.0335 60.2514 47.9781 60.9291 46.8506C67.0652 51.0086 72.0768 55.6916 75.5803 60.3657C76.6119 61.742 77.513 63.1179 78.2736 64.4801" stroke="url(#paint10_linear_438_1621)" stroke-width="3" stroke-miterlimit="10" stroke-linecap="round" stroke-linejoin="round"/>
<path d="M22.7903 33.8379C22.7183 34.53 22.6836 35.2278 22.6836 35.9372C22.6836 39.8357 23.7678 43.4834 25.6566 46.586C27.0291 48.8496 28.8256 50.8277 30.9392 52.4078C30.9421 52.4078 30.9421 52.4108 30.9449 52.4135C32.2757 53.6779 33.3675 54.8289 34.2636 55.8664" stroke="url(#paint11_linear_438_1621)" stroke-width="3" stroke-miterlimit="10" stroke-linecap="round" stroke-linejoin="round"/>
<path d="M8.17515 41.7067C11.4001 41.7067 14.0144 39.0924 14.0144 35.8675C14.0144 32.6426 11.4001 30.0283 8.17515 30.0283C4.95024 30.0283 2.33594 32.6426 2.33594 35.8675C2.33594 39.0924 4.95024 41.7067 8.17515 41.7067Z" stroke="url(#paint12_linear_438_1621)" stroke-width="3" stroke-miterlimit="10" stroke-linecap="round" stroke-linejoin="round"/>
<path d="M82.1068 80.2858C85.3317 80.2858 87.946 77.6715 87.946 74.4466C87.946 71.2217 85.3317 68.6074 82.1068 68.6074C78.8819 68.6074 76.2676 71.2217 76.2676 74.4466C76.2676 77.6715 78.8819 80.2858 82.1068 80.2858Z" stroke="url(#paint13_linear_438_1621)" stroke-width="3" stroke-miterlimit="10" stroke-linecap="round" stroke-linejoin="round"/>
<path d="M42.9004 9.30995V1.55078" stroke="url(#paint14_linear_438_1621)" stroke-width="3" stroke-miterlimit="10" stroke-linecap="round" stroke-linejoin="round"/>
<path d="M61.5215 17.0705L66.177 12.415" stroke="url(#paint15_linear_438_1621)" stroke-width="3" stroke-miterlimit="10" stroke-linecap="round" stroke-linejoin="round"/>
<path d="M24.2766 17.0705L19.6211 12.415" stroke="url(#paint16_linear_438_1621)" stroke-width="3" stroke-miterlimit="10" stroke-linecap="round" stroke-linejoin="round"/>
</g>
<defs>
<filter id="filter0_b_438_1621" x="-3.16406" y="-3.94922" width="96.6094" height="96.4482" filterUnits="userSpaceOnUse" color-interpolation-filters="sRGB">
<feFlood flood-opacity="0" result="BackgroundImageFix"/>
<feGaussianBlur in="BackgroundImage" stdDeviation="2"/>
<feComposite in2="SourceAlpha" operator="in" result="effect1_backgroundBlur_438_1621"/>
<feBlend mode="normal" in="SourceGraphic" in2="effect1_backgroundBlur_438_1621" result="shape"/>
</filter>
<linearGradient id="paint0_linear_438_1621" x1="25.9325" y1="43.4521" x2="66.7794" y2="43.4521" gradientUnits="userSpaceOnUse">
<stop offset="0.0814594" stop-color="#E1CDE3"/>
<stop offset="1" stop-color="#84ADDC"/>
</linearGradient>
<linearGradient id="paint1_linear_438_1621" x1="47.533" y1="33.8398" x2="67.0485" y2="33.8398" gradientUnits="userSpaceOnUse">
<stop offset="0.0814594" stop-color="#E1CDE3"/>
<stop offset="1" stop-color="#84ADDC"/>
</linearGradient>
<linearGradient id="paint2_linear_438_1621" x1="41.7757" y1="76.9268" x2="45.255" y2="76.9268" gradientUnits="userSpaceOnUse">
<stop offset="0.0814594" stop-color="#E1CDE3"/>
<stop offset="1" stop-color="#84ADDC"/>
</linearGradient>
<linearGradient id="paint3_linear_438_1621" x1="39.824" y1="72.9346" x2="48.5223" y2="72.9346" gradientUnits="userSpaceOnUse">
<stop offset="0.0814594" stop-color="#E1CDE3"/>
<stop offset="1" stop-color="#84ADDC"/>
</linearGradient>
<linearGradient id="paint4_linear_438_1621" x1="39.824" y1="68.6074" x2="48.5223" y2="68.6074" gradientUnits="userSpaceOnUse">
<stop offset="0.0814594" stop-color="#E1CDE3"/>
<stop offset="1" stop-color="#84ADDC"/>
</linearGradient>
<linearGradient id="paint5_linear_438_1621" x1="36.1904" y1="64.2842" x2="37.7964" y2="64.2842" gradientUnits="userSpaceOnUse">
<stop offset="0.0814594" stop-color="#E1CDE3"/>
<stop offset="1" stop-color="#84ADDC"/>
</linearGradient>
<linearGradient id="paint6_linear_438_1621" x1="49.3214" y1="64.2842" x2="50.9999" y2="64.2842" gradientUnits="userSpaceOnUse">
<stop offset="0.0814594" stop-color="#E1CDE3"/>
<stop offset="1" stop-color="#84ADDC"/>
</linearGradient>
<linearGradient id="paint7_linear_438_1621" x1="33.9809" y1="15.3828" x2="56.0162" y2="15.3828" gradientUnits="userSpaceOnUse">
<stop offset="0.0814594" stop-color="#E1CDE3"/>
<stop offset="1" stop-color="#84ADDC"/>
</linearGradient>
<linearGradient id="paint8_linear_438_1621" x1="41.138" y1="64.2842" x2="46.551" y2="64.2842" gradientUnits="userSpaceOnUse">
<stop offset="0.0814594" stop-color="#E1CDE3"/>
<stop offset="1" stop-color="#84ADDC"/>
</linearGradient>
<linearGradient id="paint9_linear_438_1621" x1="25.4803" y1="41.2842" x2="65.4489" y2="41.2842" gradientUnits="userSpaceOnUse">
<stop offset="0.0814594" stop-color="#E1CDE3"/>
<stop offset="1" stop-color="#84ADDC"/>
</linearGradient>
<linearGradient id="paint10_linear_438_1621" x1="48.7248" y1="46.8506" x2="70.5652" y2="46.8506" gradientUnits="userSpaceOnUse">
<stop offset="0.0814594" stop-color="#E1CDE3"/>
<stop offset="1" stop-color="#84ADDC"/>
</linearGradient>
<linearGradient id="paint11_linear_438_1621" x1="25.8655" y1="33.8379" x2="32.0728" y2="33.8379" gradientUnits="userSpaceOnUse">
<stop offset="0.0814594" stop-color="#E1CDE3"/>
<stop offset="1" stop-color="#84ADDC"/>
</linearGradient>
<linearGradient id="paint12_linear_438_1621" x1="5.54487" y1="30.0283" x2="11.8049" y2="30.0283" gradientUnits="userSpaceOnUse">
<stop offset="0.0814594" stop-color="#E1CDE3"/>
<stop offset="1" stop-color="#84ADDC"/>
</linearGradient>
<linearGradient id="paint13_linear_438_1621" x1="79.4765" y1="68.6074" x2="85.7366" y2="68.6074" gradientUnits="userSpaceOnUse">
<stop offset="0.0814594" stop-color="#E1CDE3"/>
<stop offset="1" stop-color="#84ADDC"/>
</linearGradient>
<linearGradient id="paint14_linear_438_1621" x1="43.1752" y1="1.55078" x2="43.7112" y2="1.55078" gradientUnits="userSpaceOnUse">
<stop offset="0.0814594" stop-color="#E1CDE3"/>
<stop offset="1" stop-color="#84ADDC"/>
</linearGradient>
<linearGradient id="paint15_linear_438_1621" x1="62.8007" y1="12.415" x2="65.2962" y2="12.415" gradientUnits="userSpaceOnUse">
<stop offset="0.0814594" stop-color="#E1CDE3"/>
<stop offset="1" stop-color="#84ADDC"/>
</linearGradient>
<linearGradient id="paint16_linear_438_1621" x1="20.9003" y1="12.415" x2="23.3958" y2="12.415" gradientUnits="userSpaceOnUse">
<stop offset="0.0814594" stop-color="#E1CDE3"/>
<stop offset="1" stop-color="#84ADDC"/>
</linearGradient>
</defs>
</svg>
