<svg width="45" height="45" viewBox="0 0 45 45" fill="none" xmlns="http://www.w3.org/2000/svg">
<path d="M27.9444 20.5508L20.7918 16.3262C20.3735 16.079 19.8992 15.9485 19.4165 15.9479C17.8906 15.9457 16.6521 17.2125 16.65 18.7773V27.2227C16.644 28.2336 17.1705 29.1693 18.0268 29.6699C18.4475 29.9221 18.9259 30.0555 19.4131 30.0566C19.898 30.0544 20.3739 29.9225 20.7938 29.6738L27.9444 25.4492C28.3655 25.2006 28.715 24.842 28.9575 24.4102C29.7168 23.0575 29.2632 21.3296 27.9444 20.5508ZM26.9695 23.7148L19.8209 27.9395C19.5686 28.0913 19.256 28.0913 19.0038 27.9395C18.7522 27.7936 18.5976 27.519 18.6001 27.2227V18.7773C18.5976 18.481 18.7522 18.2064 19.0038 18.0605C19.1299 17.9868 19.272 17.9471 19.4171 17.9453C19.5587 17.9458 19.6975 17.9856 19.8188 18.0605L26.9695 22.2852C27.0952 22.3584 27.1992 22.465 27.2705 22.5939C27.4893 22.9886 27.3545 23.4905 26.9695 23.7148ZM36.15 7H8.85C5.62055 7.00366 3.00357 9.68774 3 13V33C3.00357 36.3123 5.62055 38.9963 8.85 39H36.15C39.3795 38.9963 41.9964 36.3123 42 33V13C41.9964 9.68774 39.3795 7.00366 36.15 7ZM40.05 33C40.0473 35.208 38.3028 36.9972 36.15 37H8.85C6.69719 36.9972 4.95274 35.208 4.95 33V13C4.95274 10.792 6.69719 9.00281 8.85 9H36.15C38.3028 9.00281 40.0473 10.792 40.05 13V33Z" fill="#46546B"/>
</svg>
